PathFileType	4	(X/Y/Z)	s11c0302.trc
DataRate	CameraRate	NumFrames	NumMarkers	Units	OrigDataRate	OrigDataStartFrame	OrigNumFrames
200	200	7	48	mm	200	1250	2000
Frame#	Time	racr			lacr			c7			jug			rlel			rdr			llel			ldr			s2			lic			ric			lasi			rasi			rpsi			lpsi			rgt			lgt			rth1			rth2			rth3			rth4			rlfc			rmfc			rsh1			rsh2			rsh3			rsh4			rlmal			rcal			rtoe			rmt5			lth1			lth2			lth4			lth3			llfc			lmfc			llmal			lcal			lmt5			lsh1			lsh2			lsh3			lsh4			ltoe			SBIKE			LBIKE			RBIKE			
		X1	Y1	Z1	X2	Y2	Z2	X3	Y3	Z3	X4	Y4	Z4	X5	Y5	Z5	X6	Y6	Z6	X7	Y7	Z7	X8	Y8	Z8	X9	Y9	Z9	X10	Y10	Z10	X11	Y11	Z11	X12	Y12	Z12	X13	Y13	Z13	X14	Y14	Z14	X15	Y15	Z15	X16	Y16	Z16	X17	Y17	Z17	X18	Y18	Z18	X19	Y19	Z19	X20	Y20	Z20	X21	Y21	Z21	X22	Y22	Z22	X23	Y23	Z23	X24	Y24	Z24	X25	Y25	Z25	X26	Y26	Z26	X27	Y27	Z27	X28	Y28	Z28	X29	Y29	Z29	X30	Y30	Z30	X31	Y31	Z31	X32	Y32	Z32	X33	Y33	Z33	X34	Y34	Z34	X35	Y35	Z35	X36	Y36	Z36	X37	Y37	Z37	X38	Y38	Z38	X39	Y39	Z39	X40	Y40	Z40	X41	Y41	Z41	X42	Y42	Z42	X43	Y43	Z43	X44	Y44	Z44	X45	Y45	Z45	X46	Y46	Z46	X47	Y47	Z47	X48	Y48	Z48	
1250	6.2500	839.185395	1383.478317	-129.287581	751.576767	1382.811784	-467.501293	775.852280	1480.770880	-286.034902	768.575151	1299.905238	-297.711465	718.841182	1167.165834	38.956585	803.179273	931.862669	-67.599268	582.132566	1136.374077	-588.318973	751.259840	914.869921	-444.194233	189.106369	1313.979285	-187.096782	362.180752	1341.296463	-419.617095	439.491440	1247.204959	-41.220064	387.516993	1253.551476	-398.140921	446.270388	1192.971484	-86.176120	261.232365	1367.962827	-126.742496	236.102298	1379.675907	-219.560844	313.293561	1121.196941	-16.444611	287.496904	1220.549215	-437.814743	330.721374	996.924613	-21.753108	362.281357	915.308795	-39.814642	349.060224	830.274571	-57.536857	397.155431	920.839966	-48.943550	359.089128	725.613153	-79.266147	353.675861	706.696989	-204.043367	274.394771	589.214521	-62.617852	249.655383	506.318993	-81.001703	188.039486	444.726076	-81.683476	273.963840	496.005939	-110.582528	113.438215	328.422034	-93.298947	59.162501	358.531492	-141.967984	247.557809	141.076094	-152.285111	180.600267	166.319020	-79.833651	413.353078	1129.891190	-464.976282	493.539670	1099.320855	-468.077712	515.552866	1125.632846	-454.886033	540.709049	1028.328471	-477.384569	646.726327	939.205775	-461.177364	671.521800	923.383010	-327.840028	367.495547	610.335035	-426.656234	306.424925	619.103349	-389.882318	403.388946	434.982310	-451.812951	572.139144	841.547487	-473.126203	538.294547	763.807885	-458.473327	468.447549	710.145453	-451.048341	565.483621	746.489227	-437.453603	483.138837	378.045493	-386.818015	-214.625755	953.029658	-255.814665	-17.722425	81.961077	-460.737481	-17.682020	81.584989	-62.100737	
1251	6.2550	839.628890	1380.715728	-132.452674	751.839856	1376.547848	-468.451528	777.090004	1477.337075	-288.795977	767.142474	1295.972552	-298.088498	719.189005	1166.764256	38.118121	802.980697	931.054255	-67.763126	580.231985	1133.068801	-589.160141	750.840093	914.157341	-444.257971	188.873767	1318.756053	-187.967169	361.990116	1342.885603	-420.945346	439.791566	1251.494351	-39.861226	386.033472	1255.247738	-398.311204	445.031731	1196.049190	-85.864294	261.314944	1372.899701	-128.245484	236.374422	1384.309272	-221.205695	312.574879	1125.224015	-16.190714	285.955108	1223.295488	-437.571255	333.551955	999.848133	-21.395629	366.695746	918.769032	-39.350015	354.648467	833.520034	-57.688851	401.441537	925.094499	-48.873858	365.625640	728.685774	-77.362755	361.151853	708.821225	-201.575272	277.877747	594.216671	-60.805689	251.174775	512.019758	-79.285429	188.267713	451.713115	-79.954128	275.255208	501.285378	-108.841908	111.129354	337.031646	-91.785794	57.734178	368.455034	-140.447729	239.354989	145.439223	-152.557992	173.348850	172.229887	-80.039044	410.338963	1131.554762	-464.520677	490.033425	1099.849753	-467.499880	512.509635	1125.918890	-454.583986	536.996450	1027.912560	-475.857790	642.521083	937.492014	-459.584874	666.558199	922.745927	-326.943424	368.897931	602.603868	-426.484188	307.174425	609.472606	-389.900152	410.302347	428.650488	-451.977123	568.763390	838.570738	-472.084339	536.571415	759.913652	-458.214431	467.909991	704.791989	-450.790152	564.278322	743.415992	-437.468051	492.003122	374.621084	-386.850859	-214.563605	953.107465	-255.736570	-17.713818	82.045248	-460.665398	-17.658928	81.616372	-62.057019	
1252	6.2600	839.967410	1377.485068	-135.403800	751.976476	1369.832097	-469.247798	778.390212	1473.489331	-291.295880	765.494929	1292.039706	-298.247331	719.236958	1165.813245	37.346522	802.644872	930.419748	-68.003623	578.074529	1129.716115	-590.046704	750.262116	913.600982	-444.394545	189.455415	1323.573567	-189.463859	361.899392	1344.338330	-422.778749	438.806596	1255.906489	-39.495185	384.503038	1256.741940	-398.555535	443.636012	1199.178099	-84.853286	261.343191	1377.867427	-129.952516	236.672481	1388.951657	-223.147052	312.024808	1128.996066	-16.169808	284.343754	1225.890832	-437.667258	336.910014	1002.638606	-21.084188	371.872834	922.114942	-38.284744	361.882258	836.883246	-55.833645	406.203608	929.456371	-48.908010	373.445221	731.939857	-75.034638	368.848493	711.780644	-200.612138	282.268536	599.424788	-59.065744	253.508785	517.804674	-77.736441	189.297805	459.127025	-78.316658	277.355352	506.616112	-107.347195	109.501322	345.971972	-90.265588	56.717994	378.964993	-138.815619	231.703257	150.448422	-152.411915	166.467861	178.777500	-79.870416	406.909395	1133.027831	-464.214758	485.952614	1099.843134	-466.953251	508.899649	1125.633237	-454.260367	531.265500	1026.786305	-474.758910	637.335777	934.899350	-457.812297	661.029015	920.517590	-326.113630	369.334441	594.073815	-426.376413	306.908451	598.843846	-390.105472	416.588385	421.918116	-452.330492	564.606019	834.538261	-470.994541	534.111305	754.814167	-457.757643	466.463052	698.517113	-450.473505	562.048242	738.966815	-437.375476	500.303457	371.024278	-387.104493	-214.514418	953.141812	-255.643203	-17.712461	82.086269	-460.615057	-17.655254	81.612392	-62.037940	
1253	6.2650	840.086209	1373.605751	-138.120265	752.070141	1362.904093	-469.808648	779.424986	1469.451006	-293.705709	763.715698	1287.939368	-298.278827	719.011336	1164.762490	36.604077	802.293808	929.837334	-68.220034	575.487642	1126.130657	-590.635474	749.690104	913.095667	-444.509811	189.486406	1328.437902	-190.551105	361.839091	1345.423015	-424.872795	434.403543	1259.834710	-41.743930	382.989875	1258.059422	-398.822373	442.161652	1202.309973	-83.702610	261.332639	1382.703495	-132.101164	237.129188	1393.443998	-225.191626	311.709994	1132.781912	-15.822845	282.706578	1228.270220	-437.245272	340.623487	1005.437206	-20.705101	376.697286	925.484789	-38.617362	369.312182	840.279905	-54.776916	411.350610	933.986606	-48.983476	380.923613	735.174456	-75.317047	377.026529	714.606925	-198.692924	287.298230	604.839279	-57.599128	256.539198	523.941932	-76.338054	190.900419	466.825637	-76.784265	279.838750	512.180402	-106.217684	108.308013	355.279177	-88.950051	56.293109	389.632478	-137.836785	224.535470	155.692752	-151.506024	159.746904	185.803548	-79.405630	403.056856	1134.038590	-463.786725	481.279043	1099.218394	-466.264764	504.847608	1124.723450	-453.901262	525.037749	1025.151111	-473.374220	631.984210	929.914094	-455.049630	654.896073	917.052587	-325.357746	368.876496	584.658713	-426.230362	305.606704	587.309272	-390.520350	422.187720	414.765232	-452.930807	559.598396	829.607732	-470.062244	530.683854	749.118606	-457.742464	464.097975	691.489779	-450.389449	559.038389	733.594908	-437.674127	507.918216	367.319279	-387.360410	-214.496268	953.137643	-255.582824	-17.739637	82.092770	-460.616700	-17.658281	81.614988	-62.017111	
1254	6.2700	840.099571	1369.264242	-140.617719	752.246573	1355.781992	-470.175143	780.645265	1464.984872	-295.549164	761.860628	1284.180968	-298.435634	718.496493	1163.445544	36.068833	802.066329	929.337349	-68.281008	572.753850	1122.310799	-590.807655	749.328516	912.608357	-444.478889	189.104685	1333.347073	-191.465753	361.804328	1346.081319	-427.029013	434.108872	1264.511972	-40.827410	381.484240	1259.012619	-399.096315	440.613223	1205.637178	-82.514484	261.310686	1387.474320	-134.460412	237.647764	1397.817682	-227.335154	311.677843	1136.473497	-15.579466	281.046827	1230.493008	-436.656150	345.153291	1008.168871	-20.255597	382.838524	929.507704	-38.235678	376.977118	843.803347	-54.058856	417.065573	938.442425	-48.622668	389.811469	738.685979	-73.332524	385.438747	717.971292	-197.050899	292.967197	610.106254	-56.342806	260.143412	530.298256	-75.262587	193.265543	474.585185	-75.441117	283.033234	517.948168	-105.336360	107.401285	364.915340	-87.884511	56.688448	400.185227	-137.327838	217.730880	161.257194	-150.995836	153.595196	193.146087	-79.126151	398.799509	1134.658022	-463.383204	467.063266	1097.007017	-467.880946	500.335786	1123.061483	-453.537250	518.427826	1022.414555	-471.871089	624.918589	924.541506	-453.868033	646.456271	910.500566	-327.350493	367.601460	574.364936	-426.364708	303.289992	574.814558	-391.064384	427.065491	406.993268	-453.490591	553.725557	823.662486	-469.686273	526.486360	742.368741	-457.738849	460.950398	683.636358	-450.429299	555.344255	727.315238	-437.936566	514.757594	363.659879	-387.484323	-214.501065	953.064271	-255.633969	-17.767676	82.061811	-460.565752	-17.665184	81.630954	-61.989276	
1255	6.2750	839.928960	1364.528130	-142.743196	752.552281	1348.542084	-470.316212	781.701311	1460.515525	-297.468182	759.854919	1280.111882	-298.108214	717.734178	1161.984277	35.752709	801.727145	928.647983	-68.323096	569.450477	1118.439064	-590.913606	748.877932	911.970951	-444.433988	189.807119	1337.878764	-193.270740	361.895541	1346.271726	-429.153076	433.049643	1268.675621	-40.025311	380.070270	1259.419063	-399.435677	439.002578	1208.858631	-81.369232	261.432151	1391.939769	-137.068449	238.262140	1402.043877	-229.649147	311.927233	1139.826556	-15.440831	279.293895	1232.381579	-436.161746	348.481251	1011.500126	-19.941380	388.845024	933.472276	-38.096260	385.027721	847.476730	-53.330569	421.730895	942.924550	-50.901624	399.207974	742.307942	-72.253416	393.884256	721.800841	-195.709412	299.032702	615.496207	-55.300105	264.222167	536.472518	-74.348317	196.121984	482.357083	-74.377566	286.623411	523.766133	-104.627044	107.082073	374.590366	-87.116774	57.407114	411.056332	-136.893053	211.317898	167.139910	-150.732247	148.060518	200.924640	-79.015309	394.224518	1134.777927	-463.211697	461.594675	1095.038193	-467.086044	495.541524	1120.268126	-453.152177	510.721232	1019.370102	-470.752087	617.543944	918.080931	-452.761226	640.318453	905.641986	-324.613098	365.510077	563.130212	-426.767186	300.039340	561.229672	-391.696139	431.301682	398.599150	-453.787654	547.364815	816.379487	-469.077655	521.556388	734.548105	-457.743903	456.972702	674.679458	-450.736587	550.718428	719.007893	-437.489310	520.903726	360.018992	-387.765960	-214.515675	952.985954	-255.717614	-17.781472	81.990464	-460.578961	-17.686012	81.621770	-62.000890	
1256	6.2800	839.428559	1359.599067	-144.661906	753.098398	1341.368049	-470.241046	782.788829	1456.061690	-299.156492	757.813685	1276.041178	-297.593662	716.805571	1160.486742	35.791722	801.361306	928.109938	-68.458746	565.719390	1114.419061	-590.648540	748.413167	911.432990	-444.482151	190.203633	1342.131616	-194.725157	362.146972	1346.062740	-431.173938	431.371491	1273.082212	-40.357861	378.674747	1259.368688	-399.978864	437.259563	1212.429289	-80.266986	261.626238	1396.083581	-139.769523	238.680523	1406.673059	-231.139482	312.320125	1143.265975	-14.960992	277.496249	1233.895029	-435.699661	353.332384	1014.422266	-19.267780	394.939773	937.562073	-37.962234	393.066083	851.255181	-52.676633	427.739900	947.648595	-50.530862	408.245292	746.197746	-71.022411	402.478581	725.969273	-194.200918	305.378454	620.896432	-54.350470	268.608813	542.781846	-73.565744	199.309567	490.214639	-73.535232	290.475931	529.823914	-104.110869	107.458284	384.432338	-86.532193	58.542665	422.047460	-136.540361	205.418188	173.532027	-150.468375	143.137714	209.202162	-79.069513	389.342048	1133.848696	-461.916726	455.367743	1092.633632	-466.472283	490.282711	1117.122689	-452.872449	502.981542	1015.509516	-469.625321	609.934244	910.552447	-451.713301	632.382864	898.895823	-323.539882	362.603048	551.170520	-427.493733	296.015378	546.731479	-392.403107	434.676779	389.998155	-454.743937	540.394481	807.964514	-468.636562	515.998807	725.616560	-457.702093	452.430305	664.677016	-450.769296	545.390879	710.579840	-437.639353	526.100939	356.125671	-388.021338	-214.538918	952.938427	-255.924414	-17.767727	81.866004	-460.632427	-17.693365	81.618437	-62.021078	
